# xmcd
#
# Track frame offsets:
#	182
#	10360
#	23092
#	33275
#	42767
#	52572
#	64250
#	75190
#	87155
#	98395
#	110025
#	120887
#	132902
#	143085
#	155067
#	167925
#	178162
#	188437
#	200810
#	212820
#	228102
#	239580
#	249727
#	259647
#	273195
#	284910
#	294137
#	306920
#	320760
#	333975
#	345855
#
# Disc length: 4741 seconds
#
# Revision: 5
# Processed by: cddbd v1.5.2PL0 Copyright (c) Steve Scherf et al.
# Submitted via: EasyCDDAExtractor 15.3.0.1
#
DISCID=ad12831f
DTITLE=Bobby Bare - The All-American Boy_2 [1962-64]
DYEAR=1993
DGENRE=Country
TTITLE0=Above And Beyond 1962
TTITLE1=Shane On Me 1962
TTITLE2=To Whom It May Concern 1962
TTITLE3=Wallflower 1994
TTITLE4=I Don't Belive I'll Fall In Love Today 1962
TTITLE5=Dear Waste Basket 1994
TTITLE6=Baby, Don't Believe Him 1994
TTITLE7=I'm  Gettin' Lonely 1964
TTITLE8=Heart Of Ice 1963
TTITLE9=Candy Coated Kisses 1964
TTITLE10=The Gods Were Angry With Me 1963
TTITLE11=I'd Fight The World 1963
TTITLE12=Is It Wrong (For Loving You) 1963
TTITLE13=Dear Waste Basked 1963
TTITLE14=Detroit City 1963
TTITLE15=Lonely Town 1963
TTITLE16=She Called Me Baby 1963
TTITLE17=Five Hundred Miles Away From Home 1963
TTITLE18=It All Depends On Linda 1963
TTITLE19=Worried Man Blues 1963
TTITLE20=Homestead On The Farm 1963
TTITLE21=Abilene 1963
TTITLE22=Gotta Travel On 1963
TTITLE23=Noah's Ark 1963
TTITLE24=I Wonder Where You Are Tonight 1963
TTITLE25=Let Me Tell You About Mary 1963
TTITLE26=What Kind Of Bird Is That 1963
TTITLE27=Jeannie's Last Kiss 1963
TTITLE28=Miller's Cave 1963
TTITLE29=Sittin' And Thinkin' 1964
TTITLE30=Have I Stayed Away Too Long 1964
EXTD=
EXTT0=
EXTT1=
EXTT2=
EXTT3=
EXTT4=
EXTT5=
EXTT6=
EXTT7=
EXTT8=
EXTT9=
EXTT10=
EXTT11=
EXTT12=
EXTT13=
EXTT14=
EXTT15=
EXTT16=
EXTT17=
EXTT18=
EXTT19=
EXTT20=
EXTT21=
EXTT22=
EXTT23=
EXTT24=
EXTT25=
EXTT26=
EXTT27=
EXTT28=
EXTT29=
EXTT30=
PLAYORDER=
